<?xml version="1.0" encoding="UTF-8" standalone="no"?>
<!-- Created with Inkscape (http://www.inkscape.org/) -->
<svg id="svg2" xmlns:rdf="http://www.w3.org/1999/02/22-rdf-syntax-ns#" xmlns="http://www.w3.org/2000/svg" height="256" width="256" version="1.1" xmlns:cc="http://creativecommons.org/ns#" xmlns:dc="http://purl.org/dc/elements/1.1/" viewBox="0 0 256 256">
 <metadata id="metadata7">
  <rdf:RDF>
   <cc:Work rdf:about="">
    <dc:format>image/svg+xml</dc:format>
    <dc:type rdf:resource="http://purl.org/dc/dcmitype/StillImage"/>
    <dc:title/>
   </cc:Work>
  </rdf:RDF>
 </metadata>
 <g id="layer1" transform="translate(0,-796.36219)">
  <path id="path4209" d="m48.18976 1050.7039c-17.780328-4.7187-33.465873-17.5354-41.535871-33.9391-6.7255383-13.6709-6.554866-11.0704-6.2443272-95.14216l0.28019824-75.85782 2.622818-6.74155c7.3716648-18.94774 20.687897-32.26397 39.635631-39.63563l6.741551-2.62282h78.5 78.5l6.74155 2.62282c18.94774 7.37166 32.26397 20.68789 39.63563 39.63563l2.62282 6.74155v78.5 78.49998l-2.62282 6.7415c-7.37166 18.9478-20.68789 32.264-39.63563 39.6357l-6.74155 2.6228-76.5 0.1993c-64.341838 0.1677-77.374116-0.033-82-1.2602z" fill="#e7f4ea"/>
  <path id="path4207" d="m48.756229 1050.663c-11.480259-2.7768-20.302058-7.9167-29.675014-17.2897-9.5274829-9.5275-14.527035-18.2161-17.333498-30.1237-2.2817979-9.6814-2.2817979-148.28816 0-157.96962 2.8064629-11.90755 7.806015-20.59622 17.333498-30.12371 9.527482-9.52748 18.216153-14.52703 30.12371-17.33349 9.681454-2.2818 148.28822-2.2818 157.96966 0 11.90756 2.80646 20.59623 7.80601 30.12372 17.33349 9.52748 9.52749 14.52703 18.21616 17.33349 30.12371 2.2818 9.68146 2.2818 148.28822 0 157.96962-2.80646 11.9076-7.80601 20.5962-17.33349 30.1237-9.52749 9.5275-18.21616 14.5271-30.12372 17.3335-9.33286 2.1997-149.30322 2.1609-158.41836-0.044z" fill="#def1e3"/>
  <path id="path4205" d="m48.701977 1050.6507c-11.24839-2.7193-20.21114-7.9722-29.568556-17.3296-9.5084473-9.5084-14.64464-18.3874-17.386687-30.0563-2.279956-9.70248-2.279956-148.29748 0-157.99998 2.7420469-11.66896 7.8782401-20.54789 17.386687-30.05634 9.508447-9.50845 18.387377-14.64464 30.056339-17.38669 9.702505-2.27995 148.2975-2.27995 158 0 11.66896 2.74205 20.54789 7.87824 30.05634 17.38669s14.64464 18.38738 17.38669 30.05634c2.27995 9.7025 2.27995 148.2975 0 157.99998-2.74205 11.6689-7.87824 20.5479-17.38669 30.0563-9.50845 9.5085-18.38738 14.6447-30.05634 17.3867-9.39886 2.2086-149.32395 2.1581-158.48778-0.057z" fill="#d6eedd"/>
  <path id="path4203" d="m48.701977 1050.6507c-11.166904-2.6996-20.203055-8.0055-29.547826-17.3503-9.4972231-9.4972-14.684323-18.4473-17.407417-30.0356-2.279956-9.70248-2.279956-148.29748 0-157.99998 2.7230948-11.58831 7.9101943-20.53839 17.407417-30.03561 9.497223-9.49722 18.447298-14.68432 30.035609-17.40742 9.702505-2.27995 148.2975-2.27995 158 0 11.58831 2.7231 20.53839 7.9102 30.03561 17.40742s14.68432 18.4473 17.40742 30.03561c2.27995 9.7025 2.27995 148.2975 0 157.99998-2.7231 11.5883-7.9102 20.5384-17.40742 30.0356s-18.4473 14.6843-30.03561 17.4074c-9.39886 2.2086-149.32395 2.1581-158.48778-0.057z" fill="#b8e1c2"/>
  <path id="path4201" d="m48.184352 1050.3877c-11.956959-3.2289-19.729686-7.8086-29.019274-17.0982-9.4200195-9.4201-13.924361-17.1508-17.148687-29.432-1.6882178-6.43022-1.8266307-12.46136-1.8266307-79.59268 0-80.98526-0.17237474-78.69917 7.0519486-93.52512 4.7173382-9.68105 17.741879-22.70559 27.422929-27.42293 14.825952-7.22432 12.539865-7.05195 93.525122-7.05195 80.98526 0 78.69917-0.17237 93.52512 7.05195 9.68105 4.71734 22.70559 17.74188 27.42293 27.42293 7.22432 14.82595 7.05195 12.53986 7.05195 93.52512 0 80.98518 0.17237 78.69908-7.05195 93.52508-4.71734 9.6811-17.74188 22.7056-27.42293 27.4229-14.85106 7.2366-12.46345 7.0589-93.95749 6.9918-66.442631-0.055-73.657471-0.2194-79.573038-1.8169z" fill="#afddba"/>
  <path id="path4199" d="m51.68976 1051.2608c-21.790277-4.472-39.700143-20.1037-48.11663-41.996l-2.8833697-7.5v-77.49998-77.5l2.8763229-7.5c7.3089538-19.05807 20.528891-32.27565 39.623677-39.61663l7.5-2.88337h77.5 77.5l7.5 2.88337c19.09479 7.34098 32.31472 20.55856 39.62368 39.61663l2.87632 7.5v77.5 77.49998l-2.87632 7.5c-7.30896 19.058-20.52889 32.2756-39.62368 39.6166l-7.5 2.8834-75 0.1585c-41.25 0.087-76.8-0.211-79-0.6625z" fill="#9ad5aa"/>
  <path id="path4197" d="m48.405287 1050.2461c-22.73634-5.9569-40.40357-23.7568-46.243527-46.5908-1.8726136-7.32181-1.9719995-11.32298-1.9719995-79.39048s0.0993859-72.06867 1.9719995-79.39052c5.8901308-23.03019 23.60729-40.74735 46.637481-46.63748 7.321849-1.87261 11.323015-1.972 79.390519-1.972 68.0675 0 72.06867 0.0994 79.39052 1.972 23.03019 5.89013 40.74735 23.60729 46.63748 46.63748 1.87261 7.32185 1.972 11.32302 1.972 79.39052s-0.0994 72.06867-1.972 79.39048c-5.89013 23.0302-23.60729 40.7473-46.63748 46.6375-7.33464 1.8759-11.22409 1.9693-79.80048 1.9169-67.624787-0.052-72.54124-0.1733-79.374513-1.9636z" fill="#85cc99"/>
  <path id="path4195" d="m48.405287 1050.2461c-22.630993-5.9293-40.430629-23.8626-46.243527-46.5908-1.8726139-7.32181-1.9719998-11.32298-1.9719998-79.39048s0.0993859-72.06867 1.9719995-79.39052c5.8633022-22.92529 23.712189-40.77418 46.637481-46.63748 7.321849-1.87261 11.323015-1.972 79.390519-1.972 68.0675 0 72.06867 0.0994 79.39052 1.972 22.92529 5.8633 40.77418 23.71219 46.63748 46.63748 1.87261 7.32185 1.972 11.32302 1.972 79.39052s-0.0994 72.06867-1.972 79.39048c-5.8633 22.9253-23.71219 40.7742-46.63748 46.6375-7.33464 1.8759-11.22409 1.9693-79.80048 1.9169-67.624787-0.052-72.54124-0.1733-79.374513-1.9636z" fill="#74c588"/>
  <path id="path4193" d="m50.18976 1050.7098c-23.365785-5.0184-43.57747-25.4153-48.500648-48.945-2.1640192-10.34265-2.1640192-144.65731 0-154.99998 4.9741162-23.7732 25.227451-44.02653 49.000648-49.00065 10.342672-2.16402 144.65733-2.16402 155 0 18.15763 3.79916 35.20173 16.98027 43.36247 33.5345 7.16088 14.526 7.1028 13.7659 7.1028 92.96615 0 79.20018 0.0581 78.44008-7.1028 92.96608-8.16074 16.5543-25.20484 29.7354-43.36247 33.5345-10.04776 2.1023-145.67841 2.0538-155.5-0.056z" fill="#51b76b"/>
  <path id="path4191" d="m50.293761 1050.7183c-17.821844-3.8661-34.823703-17.1486-42.903469-33.5179-7.242016-14.672-7.1658046-13.6836-7.1658046-92.93558 0-79.252-0.0762114-78.26359 7.1658046-92.93564 8.1853549-16.58321 25.131097-29.69796 43.363831-33.56038 10.256086-2.17266 144.61519-2.17266 154.87128 0 23.81585 5.04515 44.01523 25.24453 49.06038 49.06038 2.17266 10.25609 2.17266 144.61519 0 154.87122-5.04515 23.8159-25.24453 44.0153-49.06038 49.0604-9.91463 2.1003-145.62483 2.0632-155.33164-0.042z" fill="#48b364"/>
  <path id="path4189" d="m50.778445 1050.6201c-24.566743-5.2667-43.982238-24.899-49.015674-49.5632-2.3560537-11.54472-2.3478624-142.1251 0.0096304-153.53846 5.1889257-25.1212 24.624513-44.57849 49.625199-49.68061 11.544795-2.35605 142.12518-2.34786 153.53854 0.01 25.1212 5.18893 44.57849 24.62451 49.68061 49.6252 2.34815 11.50605 2.34815 142.07827 0 153.58427-5.10212 25.0007-24.55941 44.4363-49.68061 49.6252-11.01957 2.2762-143.49971 2.2228-154.1577-0.062z" fill="#33ab52"/>
  <path id="path4187" d="m53.5121 1051.1879c-2.847712-0.4872-8.111139-1.99-11.696503-3.3395-18.219825-6.858-31.452312-20.7092-38.302204-40.0932l-2.8236327-7.99038v-75.5-75.5l2.8236327-7.9904c7.202324-20.38136 20.804608-33.98364 41.185965-41.18597l7.990402-2.82363h75.5 75.5l7.9904 2.82363c20.38136 7.20233 33.98364 20.80461 41.18597 41.18597l2.82363 7.9904v75.5 75.5l-2.82363 7.99038c-7.20233 20.3813-20.80461 33.9836-41.18597 41.186l-7.9904 2.8236-72.5 0.1545c-39.875 0.085-74.829947-0.2442-77.67766-0.7314z" fill="#2cac4d"/>
  <path id="path4185" d="m103.68976 1050.2907c-12.416353-2.4908-23.208134-6.2713-34.457011-12.0707-8.846333-4.5607-25.542989-16.0777-25.542989-17.6189 0-0.37 2.25-1.3846 5-2.2546l5-1.5817 0.69856-23.49998c0.384208-12.925 1.241297-35.22289 1.904643-49.55087 0.663345-14.32798 0.875563-27.37798 0.471594-29-0.403968-1.62202-0.686206-4.77711-0.627195-7.01132 0.05901-2.2342-0.580059-5.70724-1.420155-7.71788-1.641464-3.92857-2.056411-9.71993-0.696427-9.71993 0.457061 0 1.372164-1.0125 2.033562-2.25 0.986412-1.84561 0.837056-3.31157-0.83102-8.15655-2.543256-7.38698-2.549046-9.25458-0.03356-10.82552 1.747923-1.0916 2-2.33203 2-9.8417 0-4.72596-0.497159-11.06821-1.104798-14.09387-0.979785-4.8787-0.876545-5.94426 0.912371-9.41678 1.109443-2.15357 3.605348-5.44091 5.546456-7.3052 3.095494-2.97299 3.524717-3.97976 3.492097-8.19092-0.03876-5.00433 0.587068-6.91946 2.261165-6.91946 1.575456 0 3.818429 6.27028 2.874136 8.0347-0.605697 1.13176 0.660534 3.42947 4.591103 8.33104l5.427468 6.76828 0.01506 15.18299c0.01012 10.20394 0.462281 16.46782 1.378811 19.10091 1.104908 3.17429 1.127782 4.50292 0.120513 7-2.51427 6.23304-2.619309 9.39518-0.364549 10.97447 1.720628 1.20518 1.979464 2.13092 1.477496 5.28438-2.360634 14.82992-2.787319 23.67609-2.21023 45.82323 1.122302 43.07097 2.478565 73.79758 3.288675 74.50618 0.436825 0.3821 2.706728 0.4898 5.044228 0.2392 3.740019-0.4008 4.25-0.7543 4.25-2.9452 0-1.3694-0.952113-5.6244-2.115808-9.4556-4.290404-14.12516-1.514974-22.10269 12.600564-36.21823 10.30983-10.30983 19.58232-17.22979 30.51104-22.77005 5.51434-2.79548 10.27896-5.49186 10.58804-5.99196s-0.18725-3.16496-1.10296-5.9219c-1.53504-4.62157-1.53893-5.2049-0.0499-7.47753 0.88829-1.3557 1.7929-2.46491 2.01024-2.46491 1.76264 0 3.88134 1.72318 5.1608 4.19738 1.37505 2.65905 1.37134 3.19425-0.037 5.34363-3.49076 5.32758-1.88786 7.27784 11.43492 13.91294 9.66979 4.81582 18.58296 11.20573 27.6669 19.83458 16.37213 15.55192 18.54845 23.52603 12.7911 46.86685l-0.65501 2.6555 7.81952 0.7327 7.81952 0.7328-4.97102 4.5064c-16.69818 15.1378-38.38632 25.79-61.71722 30.3127-12.99899 2.5198-35.50781 2.4874-48.25379-0.069zm-33.515313-166.27588c-0.01949-4.13609-1.417497-6.67046-2.345524-4.25206-1.213869 3.16329-0.71601 7.50206 0.860837 7.50206 1.028782 0 1.49519-1.02097 1.484687-3.25zm5.67125-1.01903c-0.273923-0.67703-0.481368 0.11903-0.460988 1.76903s0.244498 2.20394 0.498042 1.23097c0.253543-0.97297 0.236869-2.32297-0.03705-3zm70.344063 33.1857c0-5.21025 2.36456-4.86476 2.81037 0.41063 0.23608 2.79371-0.0631 3.6727-1.25 3.6727-1.15907 0-1.56037-1.05016-1.56037-4.08333z" fill="#2aa349"/>
  <path id="path4183" d="m106.68976 1050.8496c-16.158021-3.1263-28.713494-7.6175-41.881135-14.9812-8.446061-4.7233-21.708033-14.6503-21.032442-15.7435 0.29059-0.4701 2.240469-1.1286 4.333064-1.4632 2.092594-0.3347 4.253641-0.8983 4.802325-1.2527 0.596619-0.3853 1.542655-16.5213 2.353612-40.14418 1.907681-55.57018 1.705984-69.16882-1.200253-80.9224-1.061435-4.29272-1.081541-5.50881-0.09651-5.83715 2.930271-0.97676 3.275889-4.06891 1.265623-11.3232-1.948813-7.03253-1.596219-10.91725 0.9909-10.91725 1.270886 0 1.210637-18.22219-0.07873-23.8126-1.238456-5.36966 0.992091-10.9772 6.417542-16.13357 3.12496-2.96997 3.628123-4.07542 3.64132-8 0.0084-2.50461 0.46697-5.22883 1.019-6.05383 1.56425-2.33775 4.067942 1.64005 3.807756 6.04966-0.178383 3.02321 0.628426 4.60331 5.084547 9.95789l5.296573 6.36447-0.70311 14.06504c-0.607765 12.15773-0.465642 14.65852 1.04806 18.44164 1.673814 4.18327 1.670965 4.68584-0.06449 11.37698l-1.815662 7.00037 2.290659 1.72784c1.889064 1.42493 2.178687 2.3229 1.651982 5.12198-2.853564 15.16477-3.197568 29.41857-1.655926 68.61326 0.536087 13.62948 1.141978 30.74926 1.346423 38.04395 0.204446 7.2947 0.610529 13.5019 0.902405 13.7937 0.291877 0.2919 2.723486 0.161 5.403577-0.2909 4.612893-0.7777 4.854876-0.9734 4.53525-3.6664-0.185703-1.5647-0.934014-4.5352-1.662913-6.6011-2.077545-5.88834-2.792986-14.19454-1.603208-18.61304 0.592943-2.20202 2.409714-6.01408 4.037269-8.47124 3.357106-5.0683 17.312862-19.10548 24.066492-24.20689 5.6447-4.26377 20.46903-12.70721 22.31032-12.70721 0.75884 0 2.2079-0.91514 3.22014-2.03365 1.77728-1.96388 1.77897-2.20455 0.0494-7.01437-1.66304-4.62474-1.67464-5.15836-0.16239-7.46635 2.00382-3.05822 2.68531-3.08863 5.28095-0.23563 3.05912 3.36244 3.25277 4.91631 1.06534 8.54821-1.87084 3.10624-1.88791 3.40711-0.29333 5.16911 0.93123 1.02899 4.91884 3.54234 8.86136 5.58523 12.63685 6.548 23.94129 14.63007 32.79228 23.44474 14.98157 14.92009 16.8167 22.2295 11.32414 45.10469-0.59199 2.4654-0.37676 2.6359 4.10309 3.25 2.60032 0.3564 6.09349 0.648 7.7626 0.648h3.03474l-2.42432 2.5997c-7.30043 7.8287-24.70504 18.961-39.22208 25.0872-15.05765 6.3543-25.96172 8.4746-45.70223 8.8868-12.00914 0.2508-19.69634-0.059-24.5-0.9889zm-36.515313-166.83478c-0.01949-4.13609-1.417497-6.67046-2.345524-4.25206-1.213869 3.16329-0.71601 7.50206 0.860837 7.50206 1.028782 0 1.49519-1.02097 1.484687-3.25zm5.67125-1.01903c-0.273923-0.67703-0.481368 0.11903-0.460988 1.76903s0.244498 2.20394 0.498042 1.23097c0.253543-0.97297 0.236869-2.32297-0.03705-3zm70.344063 34.85082c0-3.27455 1.01387-5.69125 2.10478-5.01703 1.58719 0.98093 1.06219 7.43524-0.60478 7.43524-0.9198 0-1.5-0.93536-1.5-2.41821z" fill="#269743"/>
  <path id="path4181" d="m105.7446 1050.651c-20.57721-3.7147-43.557419-14.2308-58.390223-26.7203l-4.335383-3.6505 2.650482-1.0077c1.457766-0.5543 3.760312-1.0077 5.116768-1.0077 1.356457 0 2.660409-0.5625 2.89767-1.25 0.237262-0.6875 0.952675-17.89998 1.589807-38.24998s1.372317-43.19978 1.633744-50.7773c0.261427-7.57751 0.145317-14.55251-0.258024-15.5-0.40334-0.94748-0.802641-3.7477-0.887336-6.2227-0.08469-2.475-0.770237-6.55818-1.523427-9.07373-1.288609-4.30377-1.23712-4.7527 0.872352-7.60591 2.183662-2.95356 2.200782-3.17027 0.66026-8.35777-2.017168-6.79255-2.049862-11.84564-0.08153-12.60096 1.194244-0.45828 1.491123-2.54121 1.456449-10.21862-0.02395-5.30366-0.391531-11.44301-0.816841-13.64301-0.959311-4.96224 0.148863-9.47033 3.10129-12.61615 6.781463-7.22567 7.134466-7.84337 6.941442-12.14651-0.10454-2.33054 0.270218-4.91234 0.832797-5.73734 1.600824-2.34755 4.087745 1.62947 3.823146 6.11388-0.175562 2.9754 0.538211 4.56494 3.826701 8.52188 6.373691 7.66927 6.396708 7.76166 5.676222 22.78457-0.571858 11.92388-0.427638 14.06159 1.190797 17.65064 1.643035 3.6436 1.698692 4.58713 0.516518 8.75633-2.439208 8.60242-2.444955 9.89017-0.04986 11.17198 1.765225 0.94472 2.097482 1.8015 1.682643 4.33894-2.612685 15.98103-2.855334 20.66441-2.288055 44.16178 0.331955 13.75 0.851853 35.35 1.155327 48s0.781794 24.50088 1.062932 26.33538l0.511161 3.3354 5.188666-0.6985c2.853766-0.3842 5.33596-0.8324 5.515987-0.9961 0.180027-0.1636-0.607473-3.6289-1.75-7.7007-2.735272-9.74784-2.779818-20.47815-0.106768-25.71776 2.463856-4.82956 16.242486-19.47239 24.390286-25.92007 6.85191-5.42218 20.67802-13.48395 24.87393-14.50356 3.52242-0.85595 4.32857-4.04158 2.26972-8.96911-1.69135-4.04797-1.36747-6.70388 1.06355-8.72145 1.21805-1.01089 1.94234-0.81268 3.96128 1.08401 2.85429 2.68147 3.15484 5.99867 0.86073 9.49992-0.88547 1.35141-1.37716 3.06374-1.09264 3.80519s4.2715 3.27878 8.85995 5.63851c13.89702 7.1469 24.88246 14.96014 34.18967 24.3169 10.61758 10.67411 13.5775 16.23689 13.71008 25.76625 0.0794 5.70993-0.31621 8.54917-2.65469 19.05037-0.53102 2.3846-0.2556 2.6584 3.25877 3.239 2.11135 0.3489 5.63881 0.6587 7.83881 0.6886l4 0.054-5.5 4.9997c-6.63623 6.0327-19.18889 14.539-27.82851 18.858-8.89694 4.4477-25.08284 9.6879-35.55248 11.51-11.04444 1.9222-33.22897 1.8879-44.06417-0.068zm-35.570153-166.6952c-0.01961-4.08727-1.423233-6.59649-2.345524-4.19304-0.825044 2.15003-0.824848 6.98304 0.000317 7.80821 1.247373 1.24737 2.360309-0.46823 2.345207-3.61517zm5.67125-0.96001c-0.273923-0.67703-0.481368 0.11903-0.460988 1.76903s0.244498 2.20394 0.498042 1.23097c0.253543-0.97297 0.236869-2.32297-0.03705-3zm70.344063 34.85082c0-1.33002 0.28762-3.16775 0.63916-4.08385 0.50987-1.32869 0.81021-1.39581 1.48469-0.33179 1.44599 2.28111 1.03038 6.83385-0.62385 6.83385-0.9198 0-1.5-0.93536-1.5-2.41821z" fill="#248e40"/>
  <path id="path4179" d="m106.28649 1050.653c-16.329096-2.7365-34.936098-10.2008-49.460372-19.8415-7.128875-4.7319-13.277578-10.2024-12.435755-11.0641 0.385331-0.3944 2.747831-0.9479 5.25-1.2299 4.091277-0.4612 4.555274-0.7766 4.607755-3.1328 0.274803-12.3371 2.057048-71.16773 2.570531-84.85143 0.449232-11.97148 0.310165-17.63696-0.455571-18.55961-0.686448-0.82712-0.802899-2.43716-0.308728-4.26845 0.546908-2.02672 0.225127-4.56396-1.035566-8.16541-2.285344-6.5286-2.279945-6.74606 0.252506-10.17139 2.003654-2.71008 2.02236-3.01466 0.5-8.141-2.079765-7.00333-2.052612-11.56784 0.07367-12.38377 1.483245-0.56918 1.587042-2.28839 0.999151-16.54908l-0.656049-15.91392 5.319705-6.30791c4.786323-5.67545 5.284572-6.70897 4.969314-10.30791-0.192715-2.2 0.122352-4.675 0.700147-5.5 1.691207-2.41477 4.285781 1.66543 3.64871 5.73792-0.42439 2.71293 0.18663 4.0911 3.768514 8.5 6.691024 8.2359 6.659281 8.11194 5.936514 23.18241-0.571858 11.92388-0.427638 14.06159 1.190797 17.65064 1.643035 3.6436 1.698692 4.58713 0.516518 8.75633-2.416039 8.52071-2.434461 9.89578-0.148967 11.11894 2.264505 1.21193 2.649793 3.9585 1.214057 8.65454-2.430318 7.94914-3.139015 21.27968-2.147761 40.39922 0.55604 10.725 1.312987 31.96461 1.682106 47.19913 0.369119 15.23445 0.994176 28.22175 1.389015 28.86065 0.755726 1.2228 10.963029 0.3785 10.963029-0.9068 0-0.3627-0.9-3.8065-2-7.653-2.63136-9.20136-2.674904-20.25674-0.09967-25.30462 2.629805-5.15484 17.84146-21.0917 25.91405-27.14948 7.49985-5.628 16.92427-11.00693 22.10865-12.61838 4.97939-1.54773 5.72919-3.30399 3.87354-9.07306-1.36347-4.2389-1.38076-5.20728-0.13643-7.63714 1.44775-2.82705 2.20762-2.81485 5.58986 0.0898 2.14447 1.84165 2.2867 6.5026 0.25 8.19291-0.825 0.68469-1.5 2.05309-1.5 3.04089 0 1.95065 2.29957 3.52636 14.48253 9.92372 4.39039 2.30543 10.91539 6.2716 14.5 8.8137 9.75218 6.91598 22.25696 19.96792 25.51932 26.63594 2.63733 5.39051 2.75213 6.19747 2.18908 15.3873-0.32681 5.33412-1.14136 11.38552-1.81009 13.44752-0.66873 2.0621-0.98526 3.9798-0.70338 4.2617 0.28187 0.2818 3.84475 0.8454 7.91751 1.2523l7.40503 0.7398-7 5.8067c-25.20421 20.9073-52.62961 30.8338-84.5 30.5846-6.875-0.054-16.28147-0.7315-20.90327-1.506zm-36.09673-166.36541c0-3.67061-0.961712-6.16447-2.104785-5.45801-1.019127 0.62986-1.227992 7.76913-0.255735 8.74139 1.198473 1.19847 2.36052-0.41788 2.36052-3.28338zm5.689326-1.77277c-0.251528-0.9625-0.457323-0.175-0.457323 1.75s0.205795 2.7125 0.457323 1.75c0.251527-0.9625 0.251527-2.5375 0-3.5zm70.310674 35.33179c0-1.33002 0.28762-3.16775 0.63916-4.08385 0.50987-1.32869 0.81021-1.39581 1.48469-0.33179 1.44599 2.28111 1.03038 6.83385-0.62385 6.83385-0.9198 0-1.5-0.93536-1.5-2.41821z" fill="#238a3e"/>
  <path id="path4177" d="m106.54635 1050.6933c-20.615702-3.4629-44.571726-14.3563-58.873444-26.7711-2.19073-1.9017-3.667875-3.7804-3.282543-4.1748 0.385331-0.3944 2.747831-0.9479 5.25-1.2299 2.502168-0.2821 4.576838-1.0168 4.610377-1.6328 0.03354-0.6159 0.481991-16.4199 0.996559-35.11988 0.514568-18.7 1.224115-41.7542 1.576772-51.23155 0.445199-11.96435 0.304286-17.63751-0.460993-18.55961-0.686448-0.82712-0.802899-2.43716-0.308728-4.26845 0.546908-2.02672 0.225127-4.56396-1.035566-8.16541-2.295005-6.5562-2.28888-6.73398 0.355223-10.31032 2.142766-2.89824 2.152262-3.05582 0.5-8.2974-2.170257-6.88485-2.180778-11.26274-0.02905-12.08844 1.483223-0.56917 1.58705-2.28821 0.999304-16.54537l-0.655891-15.9102 4.14219-4.81163c2.278205-2.64639 4.587913-5.09989 5.132685-5.45221 0.544771-0.35232 1.052374-3.1361 1.128006-6.18617 0.07563-3.05007 0.473737-5.8818 0.884678-6.29274 1.440377-1.44038 3.05611 1.60251 3.243848 6.10908 0.153919 3.69475 0.936745 5.43751 4.168364 9.27975 6.265537 7.44943 6.289719 7.5468 5.609773 22.58949-0.533285 11.79808-0.376588 14.16301 1.164926 17.58148 0.984008 2.18214 1.524391 4.98129 1.207491 6.25473-0.31548 1.26773-1.1339 4.48799-1.81871 7.15613-1.191161 4.64096-1.142128 4.92883 1.131668 6.64396 2.272341 1.71403 2.326142 2.02815 1.224414 7.14884-2.93947 13.66228-3.359396 21.27695-2.294307 41.60348 0.58352 11.1361 1.361028 32.60041 1.727797 47.69848 0.366768 15.09806 0.990081 27.97396 1.38514 28.61326 0.933631 1.5106 10.968692 0.2249 10.950527-1.4031-0.0071-0.6359-0.907096-4.0087-2-7.4952-2.645788-8.44037-2.685517-19.87154-0.08677-24.96552 2.629805-5.15484 17.84146-21.0917 25.91405-27.14948 7.49985-5.628 16.92427-11.00693 22.10865-12.61838 4.97393-1.54604 5.72731-3.30271 3.888-9.06576-1.72098-5.3923-0.7905-9.36174 2.1945-9.36174 4.12159 0 6.68946 7.34839 3.49447 10-0.825 0.68469-1.5 2.04288-1.5 3.0182 0 1.89014 6.85933 6.71821 13.30122 9.36232 13.05042 5.35661 36.00435 25.41292 41.17146 35.97411 2.6708 5.45892 2.78253 6.23699 2.21825 15.44692-0.32681 5.33413-1.14136 11.38553-1.81009 13.44753-0.66873 2.0621-0.94712 4.0179-0.61865 4.3464 0.32848 0.3285 3.89136 0.8914 7.91752 1.2509l7.32029 0.6536-7 5.8081c-18.97508 15.7441-39.90538 25.4786-62.74752 29.1832-11.24411 1.8237-31.34286 1.7939-42.39589-0.063zm-36.52371-165.35852c0.465667-3.18025-0.697256-7.27181-1.862197-6.55184-1.507357 0.9316-1.24107 9.73759 0.279317 9.23688 0.6875-0.22641 1.399796-1.43468 1.58288-2.68504zm6.06744-0.81996c-0.08673-3.2627-0.194878-3.42513-0.832271-1.25-0.402925 1.375-0.534924 3.0625-0.293331 3.75 0.795851 2.26475 1.226812 1.30757 1.125602-2.5zm70.46045 34.24776c-0.31706-0.82623-0.27201-2.71526 0.10009-4.19784 0.5306-2.11409 0.87416-2.38327 1.59254-1.24777 1.24926 1.97466 1.18858 6.94785-0.0848 6.94785-0.56727 0-1.2908-0.67601-1.60785-1.50224z" fill="#21843b"/>
  <path id="path4175" d="m106.68976 1050.6772c-10.415911-1.8334-22.692009-5.639-32.269213-10.0035-8.115657-3.6984-25.444642-14.7659-28.612764-18.2741-1.857174-2.0565-1.846432-2.0975 0.8151-3.1094 1.483392-0.564 3.792781-1.0254 5.131977-1.0254 1.339195 0 2.4725-0.1125 2.518456-0.25 0.04596-0.1375 0.478774-15.55 0.961816-34.24998 0.483043-18.7 1.187539-42.19805 1.565546-52.21788 0.503064-13.33473 0.373517-18.59595-0.483311-19.62836-0.814998-0.98202-0.87585-2.18573-0.200321-3.96251 0.726699-1.91136 0.481056-3.94394-0.978505-8.09665-2.423139-6.89427-2.42045-7.03762 0.198478-10.57991 2.099518-2.83975 2.110635-3.03485 0.5-8.77511-2.070973-7.38089-2.071017-9.643-0.000224-11.36161 1.452595-1.20555 1.57369-3.22996 1.02575-17.14806l-0.621286-15.78115 3.72425-4.22438c2.048338-2.32341 4.345493-4.7113 5.104788-5.30642 0.845223-0.66246 1.434421-3.25508 1.519501-6.68616 0.07643-3.08228 0.475189-5.94036 0.88613-6.3513 1.440377-1.44038 3.05611 1.60251 3.243848 6.10908 0.153919 3.69475 0.936745 5.43751 4.168364 9.27975 6.265537 7.44943 6.289719 7.5468 5.609773 22.58949-0.533285 11.79808-0.376588 14.16301 1.164926 17.58148 0.984008 2.18214 1.524391 4.98129 1.207491 6.25473-0.31548 1.26773-1.125072 4.44941-1.799092 7.07039-1.150639 4.47436-1.087169 4.89429 1.039148 6.87526 1.680491 1.56561 2.109464 2.78687 1.663052 4.73458-3.036819 13.24972-3.627962 23.14404-2.636265 44.12474 0.558934 11.825 1.277833 32.975 1.597555 47 0.319721 14.025 0.786472 26.51248 1.037224 27.74998 0.387055 1.9102 1.094922 2.2477 4.68686 2.2347 7.032786-0.025 7.322836-0.6032 4.869008-9.6972-2.724532-10.09717-2.81711-20.04441-0.233395-25.07732 2.491848-4.85395 15.472445-18.74658 23.438685-25.08551 7.63384-6.07443 20.41418-13.74551 24.78948-14.87926 4.71169-1.22093 5.50912-3.14688 3.6782-8.88365-1.72098-5.3923-0.7905-9.36174 2.1945-9.36174 4.12159 0 6.68946 7.34839 3.49447 10-3.84505 3.19111-0.65566 6.25844 14.5 13.94504 14.12254 7.16262 31.4438 22.29797 37.8289 33.05496 2.41931 4.0758 2.67016 5.44266 2.66114 14.5-0.005 5.5-0.63007 12.15038-1.38799 14.77868-0.75791 2.6282-1.12256 5.0341-0.81033 5.3463 0.31224 0.3123 3.83987 0.8619 7.83918 1.2214l7.27148 0.6536-6.45119 5.4128c-24.98212 20.9608-53.08565 31.2243-84.87741 30.9974-6.91558-0.049-16.17378-0.7233-20.57378-1.4978zm-36.66712-165.34242c0.465667-3.18025-0.697256-7.27181-1.862197-6.55184-1.507357 0.9316-1.24107 9.73759 0.279317 9.23688 0.6875-0.22641 1.399796-1.43468 1.58288-2.68504zm6.06744-0.81996c-0.08673-3.2627-0.194878-3.42513-0.832271-1.25-0.402925 1.375-0.534924 3.0625-0.293331 3.75 0.795851 2.26475 1.226812 1.30757 1.125602-2.5zm70.5846 34.7256c-0.34821-0.56342-0.32586-2.42333 0.0497-4.13314 0.80441-3.66246 2.42516-2.06986 2.45009 2.40754 0.0153 2.74809-1.30469 3.65928-2.49977 1.7256z" fill="#207d38"/>
  <path id="path4173" d="m109.70991 1051.2168c-21.601482-3.3866-43.669624-12.8315-60.086385-25.7165-6.242572-4.8996-6.168265-6.0591 0.445151-6.9461 2.266596-0.304 4.162241-0.606 4.212544-0.6711 0.0503-0.065 0.472977-14.9683 0.939275-33.11828 0.466298-18.15 1.167967-41.58126 1.559264-52.06946 0.476293-12.76643 0.364084-19.69017-0.339483-20.94738-0.628935-1.12384-0.713645-2.76504-0.210961-4.0872 0.567232-1.49193 0.161179-4.29708-1.25055-8.63921l-2.090521-6.42991 2.298017-3.10824c2.271334-3.07214 2.27889-3.1764 0.650758-8.97902-2.070973-7.38089-2.071017-9.643-0.000224-11.36161 1.452678-1.20561 1.573672-3.23042 1.025332-17.15869l-0.621704-15.79176 5.392644-5.86585c4.96885-5.40487 5.353811-6.16825 4.898501-9.71376-0.325073-2.53136 0.01958-4.5322 1.00732-5.84791 1.465709-1.95237 1.528376-1.92949 2.631626 0.96097 0.62159 1.62853 0.886425 3.93209 0.588522 5.11903-0.368832 1.46955 0.490853 3.50334 2.694542 6.37461 8.408867 10.95621 7.758587 8.73087 7.057151 24.15052-0.548455 12.0567-0.397267 14.39926 1.150901 17.83249 0.984895 2.18411 1.525671 4.98369 1.2087 6.25741-0.31548 1.26773-1.125072 4.44941-1.799092 7.07039-1.150639 4.47436-1.087169 4.89429 1.039148 6.87526 1.688468 1.57305 2.108193 2.77762 1.649726 4.73458-3.136853 13.38957-3.645727 22.95982-2.532324 47.62474 0.620691 13.75 1.428554 35.8 1.79525 49l0.666722 23.99998 4.5 0.2605c7.249097 0.4197 7.621912-0.2677 5.13806-9.473-1.223908-4.5358-2.13806-10.91068-2.13806-14.9098 0-5.989 0.413415-7.63801 2.896527-11.55347 3.811798-6.01058 14.876583-17.67574 22.581343-23.8066 7.63858-6.0782 20.77666-13.91852 24.60713-14.68461 3.7569-0.75138 5.29611-2.7302 4.53268-5.82725-0.33973-1.37816-0.89355-3.62244-1.23073-4.98727-0.93587-3.78831 0.34187-7.51848 2.5754-7.51848 4.00668 0 6.63496 7.42946 3.53765 10-3.97878 3.3021-1.18677 6.0902 13.42047 13.40167 9.54761 4.77894 24.55738 16.07118 31.07538 23.37881 11.78892 13.21711 13.0737 19.72053 8.36224 42.3286-0.64792 3.109 1.14009 3.8352 9.64191 3.9156l5.5 0.052-5 4.4926c-15.60308 14.0197-37.37907 25.0488-59.17578 29.9714-8.21818 1.856-36.3206 2.7412-44.80407 1.4112zm-39.68727-165.88202c0.465667-3.18025-0.697256-7.27181-1.862197-6.55184-1.507357 0.9316-1.24107 9.73759 0.279317 9.23688 0.6875-0.22641 1.399796-1.43468 1.58288-2.68504zm6.103734-0.81996c-0.05838-3.45386-0.140204-3.55773-1.036107-1.31528-0.534996 1.33909-0.745595 3.02659-0.467998 3.75 0.922955 2.40518 1.568257 1.36062 1.504105-2.43472zm70.501836 34.45021c-0.34491-0.89883-0.20218-2.88658 0.31717-4.41722l0.94429-2.78299 0.75121 3.34884c0.81975 3.65438-0.85701 6.86296-2.01267 3.85137z" fill="#1e7534"/>
  <path id="path4171" d="m110.05226 1051.2595c-16.278991-2.5836-33.571241-8.7377-47.074874-16.7534-9.615344-5.7076-19.035729-13.0309-18.297972-14.2246 0.30633-0.4956 2.571474-1.2033 5.033654-1.5725 2.462181-0.3692 4.520858-0.7327 4.574838-0.8078 0.05398-0.075 0.470921-14.3114 0.926535-31.63638 0.455614-17.325 1.155317-40.7544 1.554894-52.06532 0.495529-14.02705 0.38688-21.1722-0.341743-22.47418-0.702949-1.2561-0.738451-2.52508-0.103819-3.7109 0.685541-1.28095 0.316591-3.81353-1.275876-8.75798l-2.240305-6.95592 2.392517-2.54672 2.392516-2.54671-1.701432-6.38527c-2.121866-7.9631-2.131146-9.95548-0.0544-11.67903 1.451668-1.20478 1.57389-3.22488 1.030385-17.03033l-0.616649-15.66342 5.474511-6.1354c5.040526-5.64902 5.428946-6.42924 4.899724-9.84211-0.386897-2.49503-0.08603-4.36049 0.9204-5.70671 1.459034-1.95164 1.522514-1.92841 2.62535 0.96097 0.62159 1.62853 0.857442 4.04757 0.524117 5.37565-0.463239 1.84569 0.291592 3.50435 3.203355 7.03903 2.095171 2.54339 4.480436 5.48204 5.300588 6.53033 1.176348 1.50356 1.491186 5.19838 1.491186 17.5 0 11.52319 0.380645 16.43475 1.458128 18.81459 1.301495 2.87461 1.274109 3.73397-0.254946 8-2.095263 5.84573-2.176019 9.16075-0.241249 9.9032 2.12833 0.81671 2.668212 3.43981 1.522885 7.39916-2.756487 9.52907-3.055716 21.57478-1.502205 60.47259 0.856774 21.45246 1.661184 43.27946 1.787579 48.50446l0.229808 9.5 5.261182 0.3026c6.656372 0.3829 7.007822-0.4345 4.314189-10.034-2.74445-9.78061-2.725708-18.79371 0.05101-24.52964 5.290926-10.9296 32.252709-33.88664 45.584139-38.81335 6.77082-2.5022 7.56117-3.29332 6.86208-6.86871-1.35565-6.93323-1.11691-10.78303 0.74005-11.93368 3.76131-2.33067 7.69096 6.46906 4.18735 9.3768-3.89068 3.22897-1.01962 6.22315 12.29577 12.82303 15.01596 7.44279 33.29846 22.96012 39.74687 33.73527 2.80083 4.68015 2.95178 5.49744 2.85184 15.4417-0.0702 6.99128-0.64453 11.93238-1.71858 14.78668l-1.61307 4.2867 2.53368 0.9633c1.39353 0.5298 4.75439 0.9633 7.46859 0.9633 2.71419 0 4.9349 0.3547 4.9349 0.7882 0 0.9085-7.25847 7.1829-13.92899 12.0405-12.83042 9.3432-28.68106 16.6078-45.27441 20.7498-8.34962 2.0842-13.32203 2.6402-26.2966 2.9406-8.8 0.2037-18.53687-0.032-21.6375-0.5244zm-39.679462-164.74468c0.603873-2.53849-0.534494-7.75-1.692859-7.75-1.022141 0-2.50722 8.14963-1.64263 9.01422 1.08383 1.08383 2.944705 0.37852 3.335489-1.26422zm5.753576-2c-0.05838-3.45386-0.140204-3.55773-1.036107-1.31528-0.534996 1.33909-0.745595 3.02659-0.467998 3.75 0.922955 2.40518 1.568257 1.36062 1.504105-2.43472zm70.467996 34.362c-0.36353-0.94734-0.20427-2.71008 0.35391-3.91721 0.99399-2.14961 1.03011-2.13668 1.75496 0.62843 0.85978 3.27982-0.9996 6.17951-2.10887 3.28878z" fill="#1b6d30"/>
  <path id="path4169" d="m113.68976 1051.6564c-16.992844-2.5165-29.942962-6.5493-43.875259-13.6633-10.803135-5.5163-26.042795-16.2429-25.143665-17.6977 0.311048-0.5033 2.524753-1.2089 4.919346-1.568 4.28123-0.642 4.364187-0.7286 4.976691-5.1973 0.342588-2.4995 0.613862-10.6692 0.602832-18.15485-0.01103-7.48574 0.528772-28.59639 1.19956-46.91256 0.866669-23.66482 0.911993-34.11712 0.156617-36.11834-0.703857-1.86473-0.732098-3.40748-0.08359-4.5663 0.703557-1.25719 0.323486-3.67675-1.349435-8.59063l-2.328843-6.84051 2.414304-2.56991 2.414304-2.56991-1.701432-6.38527c-2.121866-7.9631-2.131146-9.95548-0.0544-11.67903 1.451668-1.20478 1.57389-3.22488 1.030385-17.03033l-0.616651-15.66342 5.501197-6.1653c4.952604-5.55049 5.439058-6.49654 4.878079-9.48682-0.360552-1.9219-0.108557-4.28297 0.598028-5.60324l1.221147-2.28173 1.43581 2.74034c0.834779 1.59323 1.182866 3.89198 0.831549 5.49152-0.489087 2.22679 0.12979 3.59649 3.246929 7.18609 7.38944 8.50947 7.16838 7.72645 6.512283 23.06715-0.517111 12.09097-0.359989 14.37682 1.23068 17.90429 1.728049 3.83213 1.736081 4.32098 0.153501 9.3415-2.104819 6.67726-2.108375 9.27726-0.01429 10.44916 1.85639 1.03889 2.030262 4.79462 0.500225 10.80515-1.865428 7.32807-2.224167 20.93291-1.183091 44.86767 0.574152 13.2 1.299197 33.9 1.611211 46 0.312014 12.09998 0.744127 22.56248 0.960251 23.24998 0.558134 1.7754 10.352821 1.6817 11.038691-0.1056 0.28611-0.7456-0.403013-4.8804-1.531384-9.1884-2.702983-10.31962-2.677621-18.53131 0.07479-24.21704 1.169508-2.41588 6.682008-9.02329 12.25-14.68313 10.31454-10.48469 20.37274-17.89312 31.12362-22.92428 3.3-1.54432 6.675-3.16137 7.5-3.59344 1.50628-0.78887 1.6602-2.65029 0.90124-10.89894-0.31389-3.4115-0.007-4.60884 1.41141-5.5 3.7558-2.36031 7.6963 6.44868 4.18735 9.36085-3.65906 3.03675-0.25029 6.9396 10.27354 11.76263 17.76847 8.14323 39.6419 27.83235 43.90038 39.51645 1.72182 4.72418 1.46426 15.24879-0.56348 23.0256-1.69564 6.5033-1.696 6.8467-0.008 7.75 0.97139 0.5199 4.30825 0.9453 7.41524 0.9453s5.49908 0.3948 5.31574 0.8775c-0.57533 1.5145-11.05185 10.0796-17.83333 14.5796-13.27704 8.8104-29.33519 15.5527-45.5 19.1041-6.79587 1.493-33.90236 2.7334-40 1.8304zm-43.200289-164.73023c0.712196-1.85596-0.678247-8.16135-1.799711-8.16135-1.075677 0-2.63131 6.42582-1.997252 8.25 0.576995 1.66001 3.148984 1.59996 3.796963-0.0886zm5.636903-2.41135c-0.05838-3.45386-0.140204-3.55773-1.036107-1.31528-0.534996 1.33909-0.745595 3.02659-0.467998 3.75 0.922955 2.40518 1.568257 1.36062 1.504105-2.43472zm70.582106 34.7803c-0.38885-0.62919-0.38416-2.35589 0.0104-3.83714l0.71744-2.69316 0.9892 2.8375c1.05146 3.01606-0.31674 5.95857-1.71707 3.6928z" fill="#19642d"/>
  <path id="path4167" d="m115.18976 1051.8039c-0.825-0.1974-4.875-0.8992-9-1.5596-11.06677-1.7716-25.198146-6.5282-36.375259-12.2438-10.813306-5.5296-26.041402-16.2525-25.143665-17.7051 0.311048-0.5033 2.553559-1.2132 4.983359-1.5776l4.417819-0.6625 0.516834-5.1452c0.521134-5.1881 1.549196-44.52442 2.225288-85.14528 0.342093-20.5536 0.220991-22.44108-1.841976-28.70896l-2.208143-6.70895 2.424208-2.58046 2.424208-2.58045-1.719734-6.71059c-2.123166-8.28482-2.130234-9.61108-0.06037-11.32891 1.438983-1.19425 1.571346-3.2164 1.067931-16.31512-0.376428-9.79456-0.204956-15.66154 0.497123-17.00923 0.589469-1.13153 3.053896-4.19693 5.476507-6.812 3.924694-4.23647 4.335434-5.12413 3.768772-8.1447-0.373471-1.99077-0.131936-4.33184 0.585172-5.67177l1.221147-2.28173 1.43581 2.74034c0.834779 1.59323 1.182866 3.89198 0.831549 5.49152-0.49342 2.24652 0.140706 3.59751 3.457016 7.36503 6.654446 7.55985 6.802317 8.12397 6.238574 23.79976-0.442891 12.31528-0.280651 14.43243 1.336018 17.43441 1.755416 3.25961 1.761905 3.66505 0.140969 8.80725-2.123053 6.7351-2.14475 9.36581-0.08674 10.51753 1.245522 0.69703 1.48993 1.90293 1.074126 5.29969-2.587051 21.13397-2.728711 25.45786-1.733037 52.89734 0.568785 15.675 1.290073 36.825 1.602861 47 0.312788 10.17498 0.751441 19.06248 0.974785 19.74998 0.254019 0.7819 2.301874 1.25 5.468848 1.25 6.303947 0 6.93059-1.2356 4.492497-8.8582-0.99249-3.103-2.015251-9.09667-2.272802-13.31931-0.640786-10.50589 1.360795-14.35363 14.189575-27.27729 10.89043-10.97099 17.85091-16.14892 29.59073-22.01273 4.125-2.06036 8.175-4.09122 9-4.51302 1.50751-0.77076 1.66097-2.62333 0.90124-10.88028-0.31389-3.4115-0.007-4.60884 1.41141-5.5 3.7558-2.36031 7.6963 6.44868 4.18735 9.36085-1.82469 1.51436-1.94914 4.38886-0.25 5.7744 0.6875 0.56062 5.975 3.5814 11.75 6.71285 18.94754 10.27417 36.5063 25.63212 41.61779 36.40144 2.6024 5.48295 2.86842 16.27084 0.61435 24.91379-1.81679 6.9662-1.82296 7.3461-0.13405 8.25 0.97373 0.5211 4.27501 0.9475 7.33617 0.9475s5.56574 0.2261 5.56574 0.5026c0 0.2764-1.85998 2.1889-4.13328 4.25-15.58196 14.1272-37.29476 24.9457-59.86672 29.8288-6.76495 1.4634-34.16553 2.8751-38 1.9577zm-44.58323-165.28908c0.698788-2.21719-0.685803-7.50634-2.087299-7.97351-1.164006-0.388-2.726624 7.27189-1.791973 8.78418 0.95745 1.54919 3.289085 1.06193 3.879272-0.81067zm5.519844-2c-0.05838-3.45386-0.140204-3.55773-1.036107-1.31528-0.534996 1.33909-0.745595 3.02659-0.467998 3.75 0.922955 2.40518 1.568257 1.36062 1.504105-2.43472zm70.607626 34.82158c-0.40289-0.65189-0.41669-2.39717-0.0307-3.87842l0.70186-2.69316 0.89266 2.33812c1.00866 2.642-0.32169 6.24334-1.56386 4.23346z" fill="#165727"/>
  <path id="path4165" d="m108.18976 1050.6142c-11.180552-1.7115-26.860371-6.7443-37.160135-11.9273-11.311492-5.6921-27.286894-16.8898-26.322482-18.4503 0.251913-0.4076 2.46458-1.0419 4.917038-1.4097 4.35554-0.6532 4.470698-0.7661 4.962534-4.8654 0.63702-5.3094 2.591984-96.13971 2.242651-104.19668-0.14308-3.3-1.063447-8.62531-2.045259-11.83402l-1.785113-5.83402 2.26106-2.40678 2.26106-2.40679-1.827523-8.00162c-1.765082-7.72822-1.765551-8.07009-0.01373-10.00584 1.638239-1.81023 1.758825-3.43455 1.245852-16.78199-0.362854-9.44136-0.191201-15.49118 0.475348-16.75336 0.573811-1.08657 3.057672-4.06341 5.519691-6.61521 3.859023-3.99974 4.387442-5.04464 3.831403-7.57628-0.354748-1.61515-0.140355-4.25232 0.476428-5.86037l1.121427-2.92372 1.485295 2.8139c0.877349 1.66215 1.237965 3.93999 0.881034 5.56509-0.49052 2.23332 0.128371 3.58597 3.287905 7.18609 6.669838 7.59993 6.971496 8.73907 6.416159 24.22911-0.419964 11.71407-0.230516 14.37969 1.256319 17.6769 1.633879 3.62329 1.642695 4.20015 0.131948 8.63395-2.11579 6.2095-2.124808 10.39496-0.0224 10.39496 1.737064 0 1.714633 0.76995-0.524391 18-1.052507 8.09939-0.202817 53.09425 1.775109 93.99998l0.652769 13.5 5.261182 0.3026c3.93584 0.2264 5.40483-0.072 5.831416-1.1833 0.313629-0.8173-0.42013-5.4392-1.630575-10.2709-2.792716-11.14754-2.353496-19.64733 1.30059-25.16903 3.744521-5.65835 19.71268-21.35222 26.89736-26.43535 7.5434-5.33691 19.45736-11.744 21.83792-11.744 2.95346 0 3.79145-3.79604 2.14434-9.71373-1.3487-4.84561-1.33857-5.5185 0.10484-6.96191 2.02236-2.02236 4.43037-1.1264 5.95275 2.21486 0.98354 2.15864 0.86469 3.18553-0.70638 6.10282-1.40054 2.60064-1.61993 3.93387-0.84858 5.15672 0.57217 0.90708 5.77478 4.19862 11.56135 7.31454 5.78658 3.11592 13.39491 7.74596 16.90742 10.28898 9.03204 6.53913 21.17064 18.88349 24.53187 24.94772 2.58227 4.65885 2.84379 6.00831 2.74221 14.15-0.0618 4.95-0.81166 11.47168-1.66645 14.49258-1.88476 6.661-1.57791 6.9574 7.27874 7.0302l6.5 0.053-5.38756 5.0242c-25.93481 24.1862-66.57928 35.9952-104.11244 30.2494zm-37.58323-164.09938c0.707549-2.24499-0.692916-7.50872-2.12475-7.98599-1.241483-0.41383-2.807435 7.09301-1.814701 8.69929 1.008737 1.63217 3.332861 1.21135 3.939451-0.7133zm5.51555-2c-0.06089-3.37386-0.174052-3.52986-1.128177-1.55522-0.583273 1.20714-0.79194 2.89464-0.463705 3.75 1.010477 2.63327 1.662787 1.7339 1.591882-2.19478zm70.40812 34.19479c-0.32824-0.85537-0.11957-2.54287 0.4637-3.75 0.95413-1.97465 1.06729-1.81865 1.12818 1.55521 0.0709 3.92868-0.5814 4.82805-1.59188 2.19479z" fill="#134b21"/>
  <path id="path4163" d="m111.68976 1051.1895c-9.55992-1.314-24.044162-5.2608-33.020614-8.9977-12.358768-5.1449-35.238891-19.8891-33.992836-21.9053 0.25558-0.4135 2.312825-0.9997 4.571657-1.3027 2.258833-0.303 4.390936-0.8348 4.738009-1.1819 0.812808-0.8128 1.95714-34.76172 2.645688-78.48968 0.524492-33.30919 0.471556-34.66261-1.595068-40.78081l-2.137564-6.32822 2.311041-2.45999 2.311041-2.45999-1.827523-8.00162c-1.765082-7.72822-1.765551-8.07009-0.01373-10.00584 1.639533-1.81166 1.758799-3.43522 1.24137-16.8986-0.636551-16.5629-0.753272-16.13759 6.519324-23.75513 3.354494-3.5136 3.857347-4.58833 3.310903-7.07628-0.354364-1.61341-0.139658-4.24915 0.477125-5.8572l1.121427-2.92372 1.485295 2.8139c0.893865 1.69344 1.239158 3.93456 0.867156 5.62827-0.509063 2.31775 0.09578 3.63923 3.427678 7.48894 6.507634 7.51899 6.531814 7.61067 6.181169 23.43748-0.261146 11.78714-0.01719 15.03643 1.357881 18.08579 1.595428 3.53803 1.578177 4.01585-0.357914 9.91347-2.119389 6.45599-1.947614 9.13215 0.586168 9.13215 1.173232 0 1.38073 0.91183 0.967137 4.25-2.753988 22.22782-2.790186 24.49977-1.150906 72.23446 0.906323 26.39145 1.860768 48.32892 2.120989 48.74992 0.896508 1.4506 10.379938 0.8644 10.971884-0.6782 0.304709-0.794-0.384414-5.1547-1.531385-9.6904-3.897902-15.41402-2.548293-21.62104 7.108758-32.69399 11.557-13.25145 32.90152-29.04093 41.6135-30.78332 4.22361-0.84472 5.1392-3.61855 3.33457-10.1022-1.3487-4.84561-1.33857-5.5185 0.10484-6.96191 2.02236-2.02236 4.43037-1.1264 5.95275 2.21486 0.98354 2.15864 0.86469 3.18553-0.70638 6.10282-1.40054 2.60064-1.61993 3.93387-0.84858 5.15672 0.57217 0.90708 5.84084 4.23419 11.70815 7.39358 13.64511 7.34753 23.3012 14.54286 32.35641 24.1107 8.41943 8.89606 11.25175 13.92057 12.01484 21.31423 0.54363 5.26724-0.87152 15.12331-2.97572 20.72501-1.42833 3.8025-0.00001 4.6127 8.25146 4.6805l6.5 0.053-5.5 5.1387c-14.56082 13.6043-37.00804 24.6549-59.5 29.2912-9.65983 1.9913-31.36858 2.7423-41 1.4185zm-40.963593-165.21371c0.65139-2.59535-0.984836-7.71097-2.466343-7.71097-1.208244 0-2.503551 6.42797-1.711327 8.49247 0.880418 2.29433 3.530088 1.79867 4.17767-0.7815zm5.384646-1.96097c-0.07554-4.06645-0.122801-4.12981-1.09433-1.46701-0.55846 1.53064-0.762057 3.44314-0.452437 4.25 1.014729 2.64434 1.627117 1.54252 1.546767-2.78299zm70.511457 34.93472c-0.2776-0.72341-0.067-2.41091 0.468-3.75 0.8959-2.24245 0.97772-2.13858 1.0361 1.31528 0.0642 3.79534-0.58115 4.8399-1.5041 2.43472z" fill="#10431d"/>
  <path id="path4161" d="m113.18976 1051.3069c-22.361964-2.8837-42.896752-11.1165-61.360873-24.6007-8.312374-6.0705-8.408281-6.5981-1.427282-7.8514 3.215857-0.5773 3.781119-1.0955 4.230277-3.8782 0.55979-3.468 2.683199-92.9987 2.459744-103.71178-0.07457-3.575-1.031079-9.34675-2.125582-12.82612l-1.990005-6.32611 2.106861-1.96284c2.55748-2.38266 2.610461-4.16671 0.373093-12.56328-1.677952-6.29715-1.673069-6.551 0.151698-7.8853 1.750976-1.28034 1.845288-2.47949 1.322202-16.81127-0.626119-17.15473-0.761246-16.65106 6.510665-24.26788 3.354494-3.5136 3.857347-4.58833 3.310903-7.07628-0.354364-1.61341-0.120527-4.24915 0.519638-5.8572l1.163937-2.92372 1.344043 3c0.739224 1.65 1.118682 4.14462 0.84324 5.5436-0.388234 1.97185 0.630752 3.95354 4.533319 8.81623 2.768767 3.44995 5.095012 6.80533 5.169433 7.4564 0.07442 0.65107 0.02681 7.52656-0.105793 15.27885-0.200834 11.74091 0.04832 14.65476 1.491741 17.44603 1.598585 3.09132 1.612136 3.70379 0.174902 7.90492-2.887599 8.44064-2.906915 8.77971-0.621457 10.90894 1.759365 1.6391 2.045807 2.71937 1.545477 5.82852-2.599282 16.15242-2.739719 24.89806-1.14413 71.25008 0.898051 26.08846 1.859882 47.80091 2.137402 48.24991 0.277519 0.4491 2.742146 0.8165 5.476949 0.8165 6.179381 0 6.711787-1.0803 4.469977-9.0701-0.925229-3.2975-1.943261-9.1089-2.262294-12.91432-0.51466-6.13887-0.279644-7.53296 2.084509-12.36512 2.757098-5.6353 18.972506-22.62432 27.217446-28.51594 6.30408-4.50473 17.90775-10.86748 21.09592-11.56772 4.6348-1.01797 5.63622-3.67541 3.66086-9.71471-1.19007-3.63844-1.38106-5.59092-0.65906-6.73756 1.77942-2.82597 4.08944-2.4267 5.8689 1.01439 1.58905 3.07289 1.58129 3.44089-0.13989 6.63695-1.33756 2.48369-1.54823 3.81805-0.79206 5.01683 0.5666 0.89824 6.00226 4.35209 12.07925 7.67524 13.56357 7.41711 22.74823 14.20698 31.36427 23.18641 12.27353 12.79119 14.77806 20.52708 11.44658 35.35565-2.74074 12.1992-3.03862 11.4556 4.72519 11.7957 3.7125 0.1626 6.75 0.6727 6.75 1.1336 0 1.2179-6.5182 6.9149-14 12.2364-20.50598 14.5849-43.86995 22.4094-69.5 23.2754-7.15 0.2416-15.925 0.062-19.5-0.399zm-42.332819-164.61715c0.332426-0.86629 0.05866-3.39664-0.60838-5.62301-1.497524-4.99829-3.065585-3.92135-3.801888 2.61111-0.472721 4.19397-0.331831 4.58697 1.644419 4.58697 1.188791 0 2.433423-0.70878 2.765849-1.57507zm5.253872-2.67493c-0.07554-4.06645-0.122801-4.12981-1.09433-1.46701-0.55846 1.53064-0.762057 3.44314-0.452437 4.25 1.014729 2.64434 1.627117 1.54252 1.546767-2.78299zm70.511457 34.93472c-0.2776-0.72341-0.067-2.41091 0.468-3.75 0.8959-2.24245 0.97772-2.13858 1.0361 1.31528 0.0642 3.79534-0.58115 4.8399-1.5041 2.43472z" fill="#0d3718"/>
  <path id="path4159" d="m113.1912 1051.1375c-21.99664-2.5457-43.822554-11.3815-62.247768-25.1997-6.909557-5.1819-7.251023-6.6253-1.575101-6.6577 4.437651-0.025 5.819697-2.3549 5.83583-9.8368 0.0079-3.6732 0.511203-24.22848 1.118405-45.67848s1.104224-39.675 1.104493-40.5c0.0035-10.7673-0.850384-19.67264-2.388516-24.90995-1.867992-6.36048-1.866955-6.42446 0.134347-8.28896 2.463593-2.29519 2.506186-4.13648 0.288231-12.46019l-1.728639-6.48737 2.359353-1.77967 2.359352-1.77966-1.185507-14.69041c-1.336996-16.5676-1.147118-17.29673 6.405162-24.59556 3.149045-3.04337 3.544133-3.94229 3.076593-7-0.315785-2.06523 0.01696-4.48814 0.808978-5.89061l1.345404-2.38237 1.133273 3.25091c0.623301 1.788 0.883709 4.24525 0.578686 5.46056-0.408123 1.62609 0.650641 3.6892 4.009025 7.81197 2.509987 3.08127 4.969882 6.67088 5.466433 7.9769 0.548552 1.44281 0.486901 7.12738-0.157114 14.48665-1.00965 11.53745-0.955084 12.35578 1.150211 17.24967l2.210145 5.13762-2.051358 5.48275c-2.533253 6.77072-2.532468 6.88159 0.06581 9.30225 1.714437 1.59725 2.00072 2.69844 1.504988 5.78896-2.858073 17.81801-2.853522 40.58924 0.0212 106.06649l0.625634 14.25h5.865505c5.467425 0 5.865505-0.1574 5.865505-2.3185 0-1.2752-0.75502-4.7627-1.677822-7.75-0.933908-3.0233-1.709824-8.97853-1.75-13.43148-0.06266-6.94552 0.278834-8.59314 2.590841-12.5 3.4038-5.75178 19.650291-21.86204 27.948261-27.71391 6.21883-4.38562 19.28471-11.28609 21.36996-11.28609 0.57072 0 1.60322-0.9056 2.29446-2.01244 1.02755-1.64538 0.96476-2.90526-0.34424-6.90731-1.23218-3.76718-1.34301-5.377-0.48106-6.98756 1.32861-2.48255 2.37742-2.62201 4.41266-0.58677 2.71228 2.71228 2.89266 5.32621 0.59065 8.55908l-2.18149 3.06363 2.21971 2.36278c1.22084 1.29953 6.38287 4.4567 11.47116 7.01594 17.14251 8.62209 36.36708 25.3556 41.69912 36.29585 2.69616 5.53196 3.08648 15.4292 0.95427 24.19678-2.34423 9.6394-2.44488 9.4207 4.64949 10.0993 3.44628 0.3296 6.51946 0.8528 6.82928 1.1626 0.9092 0.9092-12.40838 11.4553-21.17939 16.7718-24.53136 14.8695-53.05976 21.1205-81.41442 17.839zm-42.190381-166.0671c0.171082-1.48193-0.355361-3.95693-1.169875-5.5l-1.480934-2.80558-1.080125 2.8151c-0.594069 1.5483-1.080125 4.1671-1.080125 5.81955 0 2.54374 0.34502 2.95545 2.25 2.6849 1.597605-0.2269 2.340193-1.10081 2.561059-3.01397zm5.109994-1.05558c-0.07554-4.06645-0.122801-4.12981-1.09433-1.46701-0.55846 1.53064-0.762057 3.44314-0.452437 4.25 1.014729 2.64434 1.627117 1.54252 1.546767-2.78299zm70.717747 34.75111c-0.31635-0.82438-0.16801-2.51188 0.32963-3.75 0.78551-1.95432 0.91315-1.7567 0.96818 1.49889 0.0672 3.97649-0.35481 4.70852-1.29781 2.25111z" fill="#092811"/>
  <path id="path4157" d="m114.45731 1051.2987c-19.739909-2.2546-39.103173-9.2321-55.803252-20.1087-10.798842-7.0332-14.807945-10.5794-12.82193-11.3415 0.836664-0.321 2.523394-0.5837 3.74829-0.5837 5.507532 0 5.345117 1.1594 6.72388-47.99998 0.701871-25.025 1.185446-47.975 1.074613-51s-0.248271-7.975-0.305417-11c-0.05715-3.025-0.978274-8.14428-2.046949-11.37617-1.942354-5.87408-1.942315-5.87686 0.110084-7.78896 2.477511-2.30815 2.54361-4.25136 0.431129-12.67465-1.620411-6.46122-1.619742-6.46927 0.682624-8.20595l2.304627-1.73838-1.199675-14.75745c-1.347753-16.57897-1.531058-15.85201 6.078785-24.10771 3.427807-3.71873 3.903147-4.77726 3.406655-7.58625-0.336703-1.90495-0.02768-4.25665 0.742021-5.64686l1.319022-2.38237 1.126349 3.23105c0.71854 2.0612 0.790468 3.85864 0.198663 4.96444-0.721817 1.34872 0.171185 3.09147 4.024071 7.85318 6.463719 7.98841 6.964342 9.50266 5.892391 17.8229-1.438762 11.16734-1.145216 17.70561 1.014083 22.58706l1.967615 4.44812-2.1955 6.7528-2.195499 6.75281 2.354799 1.77623c2.00989 1.51606 2.263415 2.34745 1.730895 5.67619-2.898767 18.11993-2.899428 44.63528-0.0027 107.14995l0.613967 13.25h5.796058c3.741313 0 5.948187-0.4432 6.225184-1.25 0.236019-0.6875-0.448445-4.175-1.521032-7.75-2.612894-8.70892-2.756819-21.2508-0.297674-25.9399 2.764916-5.27214 20.873363-23.33821 29.078393-29.01034 6.94548-4.80141 18.80935-11.04725 20.9873-11.04895 0.5552-0.00043 1.57501-0.90639 2.26625-2.01323 1.02755-1.64538 0.96476-2.90526-0.34424-6.90731-1.23218-3.76718-1.34301-5.377-0.48106-6.98756 1.72578-3.22466 4.23802-2.35751 5.90992 2.03991 0.76949 2.02392 0.56952 3.27582-0.91251 5.71283-1.04388 1.71651-1.66898 3.71762-1.38912 4.44692 0.53912 1.40493 8.90631 6.71886 13.94131 8.854 12.20703 5.17651 35.81385 25.67336 40.34205 35.02736 3.83217 7.91621 3.70914 16.58996-0.44773 31.56407-0.72653 2.6172-0.22342 2.8529 8.10568 3.7979l6 0.6808-4.5 3.9886c-11.40664 10.1104-29.23541 20.1707-44.5 25.1101-16.39489 5.3051-37.24371 7.5449-53.23245 5.7187zm-43.435557-165.87882c0.359059-2.53612-1.595452-8.15506-2.836682-8.15506-1.019124 0-1.964842 3.73177-1.981656 7.81955-0.01182 2.87365 0.288577 3.27663 2.236345 3 1.477819-0.20988 2.363937-1.12432 2.581993-2.66449zm5.152694-1.40506c-0.01121-3.11246-0.274773-3.84851-0.984687-2.75-1.276013 1.97449-1.276013 7 0 7 0.55 0 0.993109-1.9125 0.984687-4.25zm70.654113 34.75111c-0.31635-0.82438-0.16801-2.51188 0.32963-3.75 0.78551-1.95432 0.91315-1.7567 0.96818 1.49889 0.0672 3.97649-0.35481 4.70852-1.29781 2.25111z" fill="#07220e"/>
  <path id="path4155" d="m117.68976 1051.6325c-24.038491-2.5881-47.660261-11.6088-65.685436-25.084-7.912815-5.9155-8.310882-7.2384-2.187009-7.2684 1.720156-0.01 3.588217-0.5778 4.151248-1.2653 0.99241-1.2118 3.876375-83.74122 3.415844-97.74998-0.117526-3.575-0.242251-8.93549-0.277166-11.91221-0.03492-2.97672-0.678587-7.02672-1.430382-9-2.108659-5.53474-2.158805-7.41608-0.248583-9.32631 2.179034-2.17903 2.203307-4.37198 0.139482-12.60126l-1.622003-6.46756 2.330714-1.75807 2.330713-1.75806-1.220179-14.74629c-1.371077-16.56994-1.556989-15.83003 6.051537-24.08431 3.15151-3.41898 3.881004-4.88668 3.477632-6.99678-0.280745-1.46862-0.03134-4.04459 0.554239-5.72438l1.064685-3.05416 1.195394 3.4647c0.718596 2.08275 0.851981 4.1312 0.334413 5.13572-0.646557 1.25486 0.375807 3.15118 4.105094 7.61429 6.593718 7.89119 7.098655 9.46265 5.875834 18.28669-1.223112 8.82613-0.68299 18.06533 1.362702 23.31005 1.403462 3.59818 1.361035 4.35312-0.580177 10.3238l-2.094366 6.44175 2.429893 1.83287c2.429126 1.83229 2.429435 1.83503 0.977885 8.6762-1.068571 5.03618-1.41806 13.31313-1.323451 31.34332 0.192268 36.64217 2.085714 85.40468 3.332392 85.82028 0.578332 0.1928 0.757691 0.8746 0.398577 1.5151-0.419671 0.7485-0.171818 0.718 0.69377-0.085 0.740687-0.6875 3.244204-1.25 5.563371-1.25 2.477799 0 4.393629-0.5155 4.645792-1.25 0.236019-0.6875-0.448473-4.175-1.521093-7.75-2.571994-8.57232-2.711531-21.2232-0.285827-25.91399 2.388772-4.61939 18.571231-21.19289 26.544461-27.1859 7.38196-5.5486 21.2224-12.90009 24.28661-12.90009 1.1257 0 1.75063-0.2961 1.38873-0.65799-0.36189-0.3619-0.18976-1.22217 0.38252-1.91173 0.73232-0.88239 0.55654-2.73338-0.59346-6.24932-1.25995-3.85208-1.37761-5.47461-0.514-7.08827 1.37492-2.56907 2.26038-2.62225 4.39461-0.26395 2.0312 2.24445 2.08518 6.01841 0.12319 8.61239-0.80751 1.06762-1.4682 2.28759-1.4682 2.71104 0 1.63619 4.75803 5.06459 12.37604 8.91756 12.53803 6.34138 21.40397 12.72424 31.15969 22.43281 9.74331 9.69621 13.19134 15.35351 14.09876 23.13235 0.49299 4.22607-0.8828 13.61099-3.24017 22.10289-0.72658 2.6174-0.22277 2.8534 8.10568 3.797l6 0.6798-4 3.5065c-16.72543 14.6621-39.03047 25.457-61.34877 29.6907-8.59749 1.6309-26.82775 2.6905-33.65123 1.9559zm-46.668007-166.21262c0.359059-2.53612-1.595452-8.15506-2.836682-8.15506-1.019124 0-1.964842 3.73177-1.981656 7.81955-0.01182 2.87365 0.288577 3.27663 2.236345 3 1.477819-0.20988 2.363937-1.12432 2.581993-2.66449zm5.668007 0.84494c0.886957-2.79455-0.406708-6.75678-1.594011-4.88213-1.168448 1.84489-1.148962 6.88213 0.02662 6.88213 0.512937 0 1.218262-0.9 1.567388-2zm70.24537 32.75c-0.25773-0.6875-0.1125-2.15 0.32273-3.25 0.6444-1.62866 0.80438-1.39657 0.86161 1.25 0.0731 3.37975-0.38016 4.14515-1.18434 2z" fill="#061b0b"/>
  <path id="path4153" d="m115.45485 1051.2924c-22.926975-2.5989-45.693248-11.4817-63.47661-24.7667-7.948034-5.9376-8.208275-6.9861-1.78848-7.206 1.375-0.047 3.04695-0.4331 3.715444-0.8579 0.893112-0.5675 1.546467-12.6962 2.463654-45.73464 0.686515-24.72929 1.174468-48.11234 1.08434-51.96234-0.09013-3.85-0.199996-9.38769-0.244151-12.30598-0.04415-2.9183-0.714513-6.9683-1.489685-9-2.214773-5.80488-2.230347-7.57006-0.08235-9.33309 1.85858-1.52547 1.915998-2.07989 0.828502-8-0.64266-3.49851-1.456128-7.32002-1.807706-8.49223-0.444027-1.48046 0.03-2.75479 1.552272-4.17301 2.049313-1.90922 2.156535-2.6793 1.652538-11.86869-0.296432-5.40485-0.847083-12.10768-1.223669-14.89517l-0.684702-5.06817 6.099224-7.2822c5.025328-6.00001 5.923449-7.61063 5.100907-9.14757-0.70254-1.31271-0.588006-2.83841 0.386581-5.14963l1.384898-3.28426 0.74183 3.74247c0.408006 2.05836 0.483186 4.41648 0.167066 5.24028-0.348416 0.90796 1.386325 3.85429 4.405027 7.48163 6.437263 7.73516 7.08518 9.56928 5.911642 16.73465-1.450876 8.85874-1.160174 20.45442 0.570141 22.7421 1.929812 2.55144 1.855212 6.65533-0.241916 13.30819l-1.710113 5.4251 2.412121 1.81947c2.408049 1.81639 2.40967 1.83102 0.960113 8.66279-1.606767 7.5727-1.685814 35.53554-0.248083 87.76036 0.598627 21.74474 1.107654 29.02074 2.052306 29.33534 0.690926 0.2301 0.958898 0.8995 0.595491 1.4875-0.434157 0.7025-0.179103 0.7678 0.74377 0.1905 0.772479-0.4832 3.429508-1.1152 5.904508-1.4045 5.172585-0.6045 5.24514-0.8942 2.626898-10.486-1.983401-7.26612-2.116211-19.45252-0.259619-23.822 1.740368-4.09594 15.811841-19.10654 23.920431-25.51688 7.60898-6.01537 21.28772-13.96609 25.46526-14.80159 3.37602-0.67521 4.99342-4.0739 3.41208-7.16993-1.75662-3.43924-2.08092-7.96228-0.70572-9.84297 1.3247-1.81164 1.41434-1.81082 3.45035 0.0318 2.42044 2.19047 2.67052 6.23055 0.55852 9.02287-0.80751 1.06762-1.4682 2.28759-1.4682 2.71104 0 1.67914 4.65508 4.91146 14.86237 10.3199 19.85794 10.52194 37.98368 27.5504 41.61519 39.09589 1.8175 5.77831 1.72411 9.34444-0.53506 20.43197-2.01841 9.906-2.29811 9.3765 5.55148 10.5098l6.99398 1.0098-6.99398 5.5817c-13.06812 10.4295-24.71028 17.0295-39.26031 22.2569-15.62122 5.6123-39.13081 8.4647-54.96858 6.6694zm-44.433097-165.87252c0.359059-2.53612-1.595452-8.15506-2.836682-8.15506-1.019124 0-1.964842 3.73177-1.981656 7.81955-0.01182 2.87365 0.288577 3.27663 2.236345 3 1.477819-0.20988 2.363937-1.12432 2.581993-2.66449zm5.997088-0.0561c0.180995-1.23441 0.04429-2.98656-0.303795-3.89364-0.546056-1.423-0.760579-1.44732-1.563768-0.17728-1.412646 2.23375-1.198949 7.21684 0.288482 6.72698 0.6875-0.22641 1.398087-1.42164 1.579081-2.65606zm70.402919 31.90104c0-1.925 0.2058-2.7125 0.45733-1.75 0.25152 0.9625 0.25152 2.5375 0 3.5-0.25153 0.9625-0.45733 0.175-0.45733-1.75z" fill="#031006"/>
  <path id="path4151" d="m115.18976 1051.2106c-22.413429-2.3026-47.453852-12.2794-64.60396-25.7399-5.052579-3.9656-5.540436-4.6391-3.84178-5.3039 1.070157-0.4188 3.156682-0.7931 4.636723-0.8317 1.480041-0.039 2.969186-0.5205 3.309211-1.0706 0.599249-0.9696 3.023289-82.38634 2.873108-96.49968-0.122345-11.49747-0.914572-19.71838-2.380785-24.70529-1.243263-4.22862-1.211652-4.89509 0.312036-6.57874 2.087759-2.30695 2.15535-6.37544 0.212766-12.80704-1.597573-5.28932-1.294625-7.89667 1.020748-8.78516 1.742075-0.6685 2.061059-15.19161 0.51296-23.35471-1.209985-6.38022-0.396711-9.26224 3.948973-13.9941 6.925626-7.54105 7.213951-8.00143 6.226317-9.94177-0.581508-1.14246-0.568682-3.15197 0.03404-5.33319 0.939828-3.40119 0.99276-3.43238 1.874925-1.10467 0.499286 1.31744 0.809854 3.84958 0.690152 5.627-0.167912 2.49325 0.709516 4.34511 3.840054 8.10467 6.499823 7.80582 7.477316 10.34701 6.322463 16.43653-1.509244 7.95821-1.2043 21.06634 0.543851 23.3776 1.901401 2.51388 1.852862 5.55672-0.205667 12.89327-1.672374 5.96029-1.67181 5.96727 0.632851 7.83347 2.248182 1.82047 2.272904 2.02601 0.974241 8.1-2.412778 11.28482-0.996095 111.10731 1.683256 118.60581 0.712652 1.9945 1.315482 2.9021 1.339623 2.0169 0.0314-1.1513 1.538045-1.8632 5.293893-2.5013 5.999182-1.0192 6.031686-1.1237 3.376898-10.8494-2.085866-7.64149-2.129369-19.67874-0.08668-23.98339 2.148353-4.52732 17.242793-20.47214 24.655003-26.044 8.18964-6.15626 18.33037-12.00362 23.48052-13.53938 4.99105-1.48831 5.8304-3.63231 3.91927-10.01128-1.31263-4.38133-0.69021-8.96183 1.21778-8.96183 1.60003 0 4.18721 3.62319 4.18721 5.86392 0 1.21355-0.7109 3.29142-1.57978 4.6175-1.128 1.72155-1.29973 2.91147-0.60049 4.16093 0.5386 0.96244 6.40674 4.70689 13.04029 8.321 22.00228 11.98733 39.24253 28.21347 42.56749 40.06356 1.77797 6.33662 1.97028 10.35723 0.69708 14.57387-2.32136 7.6879-3.30007 13.6237-2.39548 14.5283 0.5268 0.5268 3.80504 1.2757 7.28498 1.6643l6.32716 0.7066-6.92063 5.6283c-26.84534 21.8325-60.98603 32.2524-94.42062 28.8175zm-44-167.3771c0-1.75253-0.666449-4.05993-1.480997-5.12755-1.281881-1.68015-1.61594-1.73946-2.484687-0.44113-1.446208 2.16134-1.287185 9.74249 0.215684 10.28239 2.084261 0.74877 3.75-1.34504 3.75-4.71371zm6 0.43132c0-4.10311-1.37724-6.06527-2.395215-3.41247-0.796601 2.07591-0.774876 6.90905 0.03469 7.71862 1.326613 1.3266 2.360525-0.55949 2.360525-4.30615zm70.232 33c0-1.925 0.2058-2.7125 0.45733-1.75 0.25152 0.9625 0.25152 2.5375 0 3.5-0.25153 0.9625-0.45733 0.175-0.45733-1.75z" fill="#010b04"/>
  <path id="path4149" d="m116.18976 1051.1491c-22.828836-2.024-48.176294-11.9612-65.65822-25.7405l-5.84178-4.6045 5-1.0709 5-1.071 0.61418-6.9487c0.650644-7.3613 2.426044-76.40253 2.313035-89.94868-0.0959-11.49495-0.974481-20.37411-2.494109-25.20597-1.18624-3.77181-1.137513-4.41068 0.472056-6.18924 2.243081-2.47857 2.268404-7.14711 0.07354-13.55769-1.680124-4.90717-1.67491-4.9698 0.564691-6.78332 2.231951-1.80732 2.251866-2.03176 1.578307-17.78664l-0.682166-15.95623 3.786913-4.26045c7.422157-8.35028 7.49791-8.47273 6.451378-10.42819-0.673699-1.25882-0.581611-2.77481 0.293591-4.83319l1.275175-2.99908 0.734552 2.74776c0.404003 1.51127 0.455674 3.47451 0.114824 4.36275-0.691068 1.80089 2.184185 6.993 5.512978 9.95528 3.834769 3.41255 5.670567 8.84792 4.791695 14.18708-1.435752 8.72222-1.061689 21.57219 0.701237 24.08912 1.73001 2.46993 1.578877 5.5662-0.653124 13.38059-1.275553 4.46581-1.227979 4.85129 0.874978 7.08979 2.084804 2.21917 2.14961 2.70554 1.036311 7.77742-0.687807 3.13345-1.223857 14.24756-1.273804 26.41021-0.123654 30.11118 1.581754 90.48578 2.573272 91.09858 0.462269 0.2857 0.892691 1.5054 0.956491 2.7104 0.08957 1.6918 0.220197 1.7923 0.573325 0.441 0.346201-1.3248 1.503171-1.75 4.761553-1.75 6.083406 0 7.191272-1.6711 5.121974-7.7257-2.019562-5.9092-3.07186-17.46099-2.150354-23.60603 1.409794-9.40118 24.357421-31.41874 41.929151-40.22975 4.86841-2.44118 9.43212-4.4385 10.14159-4.4385 1.82452 0 2.69728-4.36868 1.50124-7.51452-0.55483-1.45932-0.77323-3.03446-0.48532-3.5003 0.2879-0.46584 0.10837-1.10353-0.39897-1.41708-1.07059-0.66166-0.31148-4.32566 1.07353-5.18165 1.60263-0.99048 4.81628 2.77685 4.81628 5.64609 0 1.49742-0.675 3.28277-1.5 3.96746-3.69503 3.06661 0.0702 7.27174 11 12.28504 10.81365 4.96004 28.09959 18.0583 35.53548 26.92668 9.57373 11.41807 11.20503 18.06354 7.94598 32.36966-1.53082 6.7197-1.87316 9.9269-1.13809 10.6619 0.57821 0.5783 3.85334 1.3225 7.27806 1.654l6.22676 0.6027-6.9241 5.6283c-26.71295 21.7139-59.39377 31.7731-93.42409 28.756zm-46.2-163.08428c1.663472-1.66347 1.502611-7.02111-0.280997-9.35887-1.281881-1.68015-1.61594-1.73946-2.484687-0.44113-0.55203 0.825-1.010581 3.3375-1.019003 5.58333-0.01995 5.31895 1.258283 6.74307 3.784687 4.21667zm7.2-3.8c0-4.10311-1.37724-6.06527-2.395215-3.41247-0.796601 2.07591-0.774876 6.90905 0.03469 7.71862 1.326613 1.3266 2.360525-0.55949 2.360525-4.30615zm70.19495 32.5c-0.0204-1.65 0.18706-2.44606 0.46099-1.76903 0.27392 0.67703 0.29059 2.02703 0.0371 3-0.25354 0.97297-0.47766 0.41903-0.49804-1.23097z"/>
 </g>
</svg>
